# xmcd CD database file
#
# Track frame offsets:
#	150
#	9460
#	25587
#	38262
#	51127
#	64165
#	76480
#	84557
#	99015
#	113995
#	122242
#	126335
#	135442
#	149052
#	161237
#
# Disc length: 2217 seconds
#
# Revision: 4
# Processed by: cddbd v1.4PL0 Copyright (c) Steve Scherf et al.
# Submitted via: CDex 1.50beta10
#
DISCID=c208a70f
DTITLE=Merle Haggard - I Love Dixie Blues
DYEAR=1997
DGENRE=Country
TTITLE0=Hammin' it up
TTITLE1=Everybody's Had The Blues
TTITLE2=Big Bad Bill
TTITLE3=I Forget You Everyday
TTITLE4=I Ain't Got Nobody
TTITLE5=Carolyn
TTITLE6=Champagne
TTITLE7=Lovesick Blues
TTITLE8=The Emptiest Arms In The World
TTITLE9=Nobody Knows I'm Hurtin'
TTITLE10=Intro To Way Down Yonder In New Orleans
TTITLE11=Way Down Yonder In New Orleans
TTITLE12=Okie From Muskogee
TTITLE13=I Wonder If They Ever Think Of Me
TTITLE14=Finale
EXTD=YEAR: 1997
EXTT0=
EXTT1=
EXTT2=
EXTT3=
EXTT4=
EXTT5=
EXTT6=
EXTT7=
EXTT8=
EXTT9=
EXTT10=
EXTT11=
EXTT12=
EXTT13=
EXTT14=
PLAYORDER=
